# xmcd CD database file
#
# Track frame offsets:
#	187
#	26449
#	46079
#	69434
#	93617
#	115869
#	135729
#	160164
#	177677
#	197334
#
# Disc length: 2894 seconds
#
# Revision: 4
# Processed by: cddbd v1.5.2PL0 Copyright (c) Steve Scherf et al.
# Submitted via: CDex 1.70beta3
#
DISCID=810b4c0a
DTITLE=SLY - KEY
DYEAR=1996
DGENRE=J-Metal
TTITLE0=Mankind's Children
TTITLE1=Mass Media
TTITLE2=Sleeping Dogs
TTITLE3=Key
TTITLE4=Eternally
TTITLE5=Ghost Of The Past
TTITLE6=My Horizon
TTITLE7=New Reality
TTITLE8=Magic Blood
TTITLE9=Runnin
EXTD=YEAR: 1996
EXTT0=
EXTT1=
EXTT2=
EXTT3=
EXTT4=
EXTT5=
EXTT6=
EXTT7=
EXTT8=
EXTT9=
PLAYORDER=
